<?xml version="1.0" encoding="UTF-8" standalone="no"?>
<!DOCTYPE svg PUBLIC "-//W3C//DTD SVG 1.1//EN" "http://www.w3.org/Graphics/SVG/1.1/DTD/svg11.dtd">
<svg width="100%" height="100%" viewBox="0 0 256 256" version="1.1" xmlns="http://www.w3.org/2000/svg" xmlns:xlink="http://www.w3.org/1999/xlink" xml:space="preserve" xmlns:serif="http://www.serif.com/" style="fill-rule:evenodd;clip-rule:evenodd;stroke-linecap:round;stroke-linejoin:round;">
    <g transform="matrix(1.77778,0,0,1.77778,64,64)">
        <g transform="matrix(1,0,0,1,-36,-36)">
            <g id="color">
                <circle cx="36" cy="36" r="23" style="fill:rgb(252,234,43);"/>
                <path d="M50.595,41.64C50.607,43.18 50.311,44.706 49.725,46.13C37.235,49.16 24.295,46.47 22.235,46C21.676,44.615 21.394,43.134 21.405,41.64L21.515,41.64C21.515,41.64 36.315,45.23 50.405,41.71L50.595,41.64Z" style="fill:white;fill-rule:nonzero;"/>
                <path d="M49.725,46.13C47.935,50.4 43.375,53.36 36.035,53.36C28.625,53.36 24.005,50.33 22.235,46C24.295,46.47 37.235,49.16 49.725,46.13Z" style="fill:rgb(234,90,71);fill-rule:nonzero;"/>
            </g>
            <g id="line">
                <circle cx="36" cy="36" r="23" style="fill:none;stroke:black;stroke-width:2px;"/>
                <ellipse cx="28.568" cy="30.818" rx="3" ry="5.404"/>
                <ellipse cx="43.432" cy="30.822" rx="3" ry="5.404"/>
                <path d="M50.595,41.64C50.607,43.18 50.311,44.706 49.725,46.13C37.235,49.16 24.295,46.47 22.235,46C21.676,44.615 21.394,43.134 21.405,41.64L21.515,41.64C21.515,41.64 36.315,45.23 50.405,41.71L50.595,41.64Z" style="fill:none;fill-rule:nonzero;stroke:black;stroke-width:2px;"/>
                <path d="M49.725,46.13C47.935,50.4 43.375,53.36 36.035,53.36C28.625,53.36 24.005,50.33 22.235,46C24.295,46.47 37.235,49.16 49.725,46.13Z" style="fill:none;fill-rule:nonzero;stroke:black;stroke-width:2px;"/>
            </g>
        </g>
    </g>
    <g transform="matrix(1.77778,0,0,1.77778,192,192)">
        <g transform="matrix(1,0,0,1,-36,-36)">
            <g id="color1" serif:id="color">
                <circle cx="36" cy="36" r="24" style="fill:rgb(252,234,43);"/>
                <path d="M54.252,28.176L54.248,28.176C51.921,28.176 50.006,26.261 50.006,23.934C50.006,23.933 50.006,23.933 50.006,23.933C50.006,19.731 54.217,15.471 54.259,15.429C54.413,15.602 58.493,19.752 58.493,23.933C58.493,23.933 58.493,23.934 58.493,23.935C58.493,26.261 56.579,28.176 54.252,28.176Z" style="fill:rgb(146,211,245);fill-rule:nonzero;"/>
                <path d="M50.595,41.64C50.607,43.18 50.311,44.706 49.725,46.13C37.235,49.16 24.295,46.47 22.235,46C21.676,44.615 21.394,43.134 21.405,41.64L21.515,41.64C21.515,41.64 36.315,45.23 50.405,41.71L50.595,41.64Z" style="fill:white;fill-rule:nonzero;"/>
                <path d="M49.725,46.13C47.935,50.4 43.375,53.36 36.035,53.36C28.625,53.36 24.005,50.33 22.235,46C24.295,46.47 37.235,49.16 49.725,46.13Z" style="fill:rgb(234,90,71);fill-rule:nonzero;"/>
            </g>
            <g id="line1" serif:id="line">
                <path d="M54.252,28.176L54.248,28.176C51.921,28.176 50.006,26.261 50.006,23.934C50.006,23.933 50.006,23.933 50.006,23.933C50.006,19.731 54.217,15.471 54.259,15.429C54.413,15.602 58.493,19.752 58.493,23.933C58.493,23.933 58.493,23.934 58.493,23.935C58.493,26.261 56.579,28.176 54.252,28.176Z" style="fill:none;fill-rule:nonzero;stroke:black;stroke-width:2px;stroke-linecap:butt;"/>
                <path d="M48.094,16.433C44.472,14.198 40.298,13.015 36.042,13.015C23.447,13.015 13.084,23.379 13.084,35.973C13.084,48.567 23.447,58.931 36.042,58.931C48.636,58.931 59,48.567 59,35.973C59,34.362 58.83,32.754 58.494,31.179" style="fill:none;fill-rule:nonzero;stroke:black;stroke-width:2px;"/>
                <path d="M50.595,41.64C50.607,43.18 50.311,44.706 49.725,46.13C37.235,49.16 24.295,46.47 22.235,46C21.676,44.615 21.394,43.134 21.405,41.64L21.515,41.64C21.515,41.64 36.315,45.23 50.405,41.71L50.595,41.64Z" style="fill:none;fill-rule:nonzero;stroke:black;stroke-width:2px;"/>
                <path d="M49.725,46.13C47.935,50.4 43.375,53.36 36.035,53.36C28.625,53.36 24.005,50.33 22.235,46C24.295,46.47 37.235,49.16 49.725,46.13Z" style="fill:none;fill-rule:nonzero;stroke:black;stroke-width:2px;"/>
                <path d="M31.694,33.404C30.937,31.7 29.24,30.596 27.375,30.596C25.51,30.596 23.813,31.7 23.056,33.404" style="fill:none;fill-rule:nonzero;stroke:black;stroke-width:2px;stroke-linejoin:miter;stroke-miterlimit:10;"/>
                <path d="M48.944,33.404C48.187,31.7 46.49,30.596 44.625,30.596C42.76,30.596 41.063,31.7 40.306,33.404" style="fill:none;fill-rule:nonzero;stroke:black;stroke-width:2px;stroke-linejoin:miter;stroke-miterlimit:10;"/>
            </g>
        </g>
    </g>
    <g transform="matrix(1.77778,0,0,1.77778,192,64)">
        <g transform="matrix(1,0,0,1,-36,-36)">
            <g id="color2" serif:id="color">
                <circle cx="36" cy="36" r="24" style="fill:rgb(252,234,43);"/>
                <path d="M25.042,21.237L33.029,20.036L29.124,27.106L32.734,34.33L24.804,32.801L19.049,38.466L18.052,30.452L10.886,26.729L18.2,23.305L19.526,15.339L25.042,21.237Z" style="fill:rgb(241,179,28);fill-rule:nonzero;"/>
                <path d="M46.882,21.237L38.896,20.036L42.801,27.106L39.191,34.33L47.121,32.801L52.876,38.466L53.872,30.452L61.039,26.729L53.725,23.305L52.399,15.339L46.882,21.237Z" style="fill:rgb(241,179,28);fill-rule:nonzero;"/>
                <path d="M49.737,46.356C47.947,50.626 43.387,53.586 36.037,53.586C28.627,53.586 24.007,50.556 22.237,46.226C24.267,46.686 37.217,49.396 49.737,46.356Z" style="fill:rgb(234,90,71);fill-rule:nonzero;"/>
                <path d="M50.607,41.866C50.607,43.466 50.317,44.976 49.737,46.356C37.217,49.396 24.267,46.686 22.237,46.226C21.687,44.876 21.407,43.406 21.407,41.866L21.517,41.866C21.517,41.866 36.327,45.456 50.407,41.936L50.607,41.866Z" style="fill:white;fill-rule:nonzero;"/>
            </g>
            <g id="line2" serif:id="line">
                <path d="M50.607,41.866C50.607,43.466 50.317,44.976 49.737,46.356C37.217,49.396 24.267,46.686 22.237,46.226C21.687,44.876 21.407,43.406 21.407,41.866L21.517,41.866C21.517,41.866 36.327,45.456 50.407,41.936L50.607,41.866Z" style="fill:none;fill-rule:nonzero;stroke:black;stroke-width:2px;stroke-miterlimit:10;"/>
                <path d="M49.737,46.356C47.947,50.626 43.387,53.586 36.037,53.586C28.627,53.586 24.007,50.556 22.237,46.226C24.267,46.686 37.217,49.396 49.737,46.356Z" style="fill:none;fill-rule:nonzero;stroke:black;stroke-width:2px;stroke-linecap:butt;stroke-miterlimit:10;"/>
                <path d="M50.227,46.236C50.067,46.276 49.897,46.316 49.737,46.356" style="fill:none;fill-rule:nonzero;stroke:black;stroke-width:2px;stroke-linecap:butt;stroke-miterlimit:10;"/>
                <path d="M22.237,46.226C22.047,46.176 21.957,46.156 21.957,46.156" style="fill:none;fill-rule:nonzero;stroke:black;stroke-width:2px;stroke-linecap:butt;stroke-miterlimit:10;"/>
                <path d="M46.554,15.559C43.393,13.924 39.805,13 36,13C32.045,13 28.324,13.998 25.074,15.756C25.024,15.783 24.974,15.81 24.924,15.837" style="fill:none;fill-rule:nonzero;stroke:black;stroke-width:2px;stroke-miterlimit:10;"/>
                <path d="M13.195,32.995C13.066,33.979 13,34.982 13,36C13,48.702 23.297,59 36,59C48.702,59 59,48.702 59,36C59,34.993 58.935,34.001 58.81,33.027" style="fill:none;fill-rule:nonzero;stroke:black;stroke-width:2px;stroke-miterlimit:10;"/>
                <path d="M25.118,21.237L33.104,20.036L29.199,27.106L32.809,34.33L24.879,32.801L19.124,38.466L18.128,30.452L10.961,26.729L18.275,23.305L19.601,15.339L25.118,21.237Z" style="fill:none;fill-rule:nonzero;stroke:black;stroke-width:2px;stroke-miterlimit:10;"/>
                <path d="M46.882,21.237L38.896,20.036L42.801,27.106L39.191,34.33L47.121,32.801L52.876,38.466L53.872,30.452L61.039,26.729L53.725,23.305L52.399,15.339L46.882,21.237Z" style="fill:none;fill-rule:nonzero;stroke:black;stroke-width:2px;stroke-miterlimit:10;"/>
            </g>
        </g>
    </g>
    <g transform="matrix(1.77778,0,0,1.77778,64,192)">
        <g transform="matrix(1,0,0,1,-36,-36)">
            <g id="color3" serif:id="color">
                <circle cx="36" cy="36" r="24" style="fill:rgb(252,234,43);"/>
                <path d="M11.319,34.66C11.234,34.835 11.024,34.908 10.85,34.824C10.778,34.789 10.72,34.731 10.686,34.66C9.716,32.646 7.296,31.8 5.282,32.77C3.268,33.74 2.422,36.16 3.392,38.174C3.499,38.394 3.625,38.605 3.769,38.803L11.002,48.077L18.193,38.859L18.425,38.517C19.587,36.607 18.981,34.117 17.071,32.955C15.161,31.793 12.671,32.4 11.509,34.31C11.44,34.423 11.376,34.54 11.319,34.66Z" style="fill:rgb(255,167,192);fill-rule:nonzero;"/>
                <path d="M48.319,7.66C48.234,7.835 48.024,7.908 47.85,7.824C47.778,7.789 47.72,7.731 47.686,7.66C46.716,5.646 44.296,4.8 42.282,5.77C40.268,6.74 39.422,9.16 40.392,11.174C40.499,11.394 40.625,11.605 40.769,11.803L48.002,21.077L55.193,11.859L55.425,11.517C56.587,9.607 55.981,7.117 54.071,5.955C52.161,4.793 49.671,5.4 48.509,7.31C48.44,7.423 48.376,7.54 48.319,7.66Z" style="fill:rgb(255,167,192);fill-rule:nonzero;"/>
                <path d="M56.319,52.66C56.234,52.835 56.024,52.908 55.85,52.824C55.778,52.789 55.72,52.731 55.686,52.66C54.716,50.646 52.296,49.8 50.282,50.77C48.268,51.74 47.422,54.16 48.392,56.174C48.499,56.394 48.625,56.605 48.769,56.803L56.002,66.077L63.193,56.859L63.425,56.517C64.587,54.607 63.981,52.117 62.071,50.955C60.161,49.793 57.671,50.4 56.509,52.31C56.44,52.423 56.376,52.54 56.319,52.66Z" style="fill:rgb(255,167,192);fill-rule:nonzero;"/>
            </g>
            <g id="line3" serif:id="line">
                <path d="M45.815,44.804C40.115,49.503 31.885,49.503 26.185,44.804" style="fill:none;fill-rule:nonzero;stroke:black;stroke-width:2px;"/>
                <path d="M52.04,50.366C49.803,50.366 47.99,52.179 47.99,54.416C47.99,55.157 48.194,55.884 48.578,56.517L48.81,56.859L56.001,66.077L63.234,56.802C64.555,54.998 64.162,52.465 62.358,51.145C60.554,49.824 58.021,50.217 56.701,52.021C56.554,52.222 56.426,52.436 56.318,52.66C56.234,52.835 56.024,52.908 55.849,52.824C55.777,52.789 55.72,52.732 55.685,52.66C55.017,51.254 53.597,50.36 52.04,50.366Z" style="fill:none;fill-rule:nonzero;stroke:black;stroke-width:2px;"/>
                <path d="M7.04,32.366C4.803,32.366 2.99,34.179 2.99,36.416C2.99,37.157 3.193,37.884 3.578,38.517L3.81,38.859L11.001,48.077L18.234,38.802C19.555,36.998 19.163,34.465 17.358,33.145C15.554,31.824 13.021,32.217 11.701,34.021C11.554,34.222 11.426,34.436 11.318,34.66C11.234,34.835 11.024,34.908 10.849,34.824C10.777,34.789 10.72,34.731 10.685,34.66C10.017,33.254 8.597,32.36 7.04,32.366Z" style="fill:none;fill-rule:nonzero;stroke:black;stroke-width:2px;"/>
                <path d="M44.04,5.366C41.803,5.366 39.99,7.179 39.99,9.416C39.99,10.157 40.194,10.884 40.578,11.517L40.81,11.859L48.001,21.077L55.234,11.802C56.555,9.998 56.163,7.465 54.358,6.145C52.554,4.824 50.021,5.217 48.701,7.021C48.554,7.222 48.426,7.436 48.318,7.66C48.234,7.835 48.024,7.908 47.849,7.824C47.777,7.789 47.72,7.732 47.685,7.66C47.017,6.254 45.597,5.36 44.04,5.366Z" style="fill:none;fill-rule:nonzero;stroke:black;stroke-width:2px;"/>
                <path d="M42.808,57.976C40.656,58.642 38.37,59 36,59C28.061,59 21.061,54.978 16.928,48.859" style="fill:none;fill-rule:nonzero;stroke:black;stroke-width:2px;"/>
                <path d="M53.748,21.37C57.029,25.346 59,30.443 59,36C59,39.603 58.171,43.014 56.694,46.05" style="fill:none;fill-rule:nonzero;stroke:black;stroke-width:2px;"/>
                <path d="M14.732,27.227C18.181,18.877 26.404,13 36,13" style="fill:none;fill-rule:nonzero;stroke:black;stroke-width:2px;"/>
                <path d="M31.694,32.404C30.634,30.018 27.841,28.944 25.456,30.003C24.386,30.479 23.531,31.334 23.056,32.404" style="fill:none;fill-rule:nonzero;stroke:black;stroke-width:2px;stroke-linejoin:miter;stroke-miterlimit:10;"/>
                <path d="M48.944,32.404C47.884,30.018 45.091,28.944 42.706,30.003C41.636,30.479 40.781,31.334 40.306,32.404" style="fill:none;fill-rule:nonzero;stroke:black;stroke-width:2px;stroke-linejoin:miter;stroke-miterlimit:10;"/>
            </g>
        </g>
    </g>
</svg>
